HIERARCHY
ROOT Hips
{
	OFFSET 0.000000 0.000000 0.000000
	CHANNELS 6 Xposition Yposition Zposition Xrotation Yrotation Zrotation
	JOINT LeftUpLeg_virtual
	{
		OFFSET 0.000000 0.000000 0.000000
		CHANNELS 3 Xrotation Yrotation Zrotation
		JOINT LeftUpLeg
		{
			OFFSET 15.427100 -6.655098 0.678600
			CHANNELS 3 Xrotation Yrotation Zrotation
			JOINT LeftLeg
			{
				OFFSET 4.081073 -39.591068 13.024000
				CHANNELS 3 Xrotation Yrotation Zrotation
				JOINT LeftFoot
				{
					OFFSET -4.081074 -37.707932 -15.979700
					CHANNELS 3 Xrotation Yrotation Zrotation
					JOINT LeftToeBase
					{
						OFFSET 5.346399 -15.068900 20.645000
						CHANNELS 3 Xrotation Yrotation Zrotation
						JOINT LeftToe_End
						{
							OFFSET 2.754700 0.931300 11.300900
							CHANNELS 3 Xrotation Yrotation Zrotation
							End Site
							{
								OFFSET 0 0 0
							}
						}
					}
				}
			}
		}
	}
	JOINT RightUpLeg_virtual
	{
		OFFSET 0.000000 0.000000 0.000000
		CHANNELS 3 Xrotation Yrotation Zrotation
		JOINT RightUpLeg
		{
			OFFSET -15.569500 -6.655098 0.678600
			CHANNELS 3 Xrotation Yrotation Zrotation
			JOINT RightLeg
			{
				OFFSET -4.081825 -39.591045 13.023800
				CHANNELS 3 Xrotation Yrotation Zrotation
				JOINT RightFoot
				{
					OFFSET 4.081824 -37.707954 -15.979600
					CHANNELS 3 Xrotation Yrotation Zrotation
					JOINT RightToeBase
					{
						OFFSET -5.346400 -15.068900 20.645000
						CHANNELS 3 Xrotation Yrotation Zrotation
						JOINT RightToe_End
						{
							OFFSET -2.754700 0.931300 11.300900
							CHANNELS 3 Xrotation Yrotation Zrotation
							End Site
							{
								OFFSET 0 0 0
							}
						}
					}
				}
			}
		}
	}
	JOINT Spine_virtual
	{
		OFFSET 0.000000 0.000000 0.000000
		CHANNELS 3 Xrotation Yrotation Zrotation
		JOINT Spine
		{
			OFFSET -0.279200 12.230698 -2.892100
			CHANNELS 3 Xrotation Yrotation Zrotation
			JOINT Spine1
			{
				OFFSET -0.232667 10.192268 -1.242267
				CHANNELS 3 Xrotation Yrotation Zrotation
				JOINT Spine1_split
				{
					OFFSET -0.232667 10.192268 -1.242267
					CHANNELS 3 Xrotation Yrotation Zrotation
					JOINT Spine2
					{
						OFFSET -0.232667 10.192268 -1.242267
						CHANNELS 3 Xrotation Yrotation Zrotation
						JOINT Neck_virtual
						{
							OFFSET 0.000000 0.000000 0.000000
							CHANNELS 3 Xrotation Yrotation Zrotation
							JOINT Neck
							{
								OFFSET -0.418800 17.814194 8.416900
								CHANNELS 3 Xrotation Yrotation Zrotation
								JOINT Head
								{
									OFFSET 0.000000 7.031097 3.806800
									CHANNELS 3 Xrotation Yrotation Zrotation
									JOINT HeadTop_End
									{
										OFFSET 0.000000 24.646606 12.978600
										CHANNELS 3 Xrotation Yrotation Zrotation
										End Site
										{
											OFFSET 0 0 0
										}
									}
								}
							}
						}
						JOINT LeftShoulder_virtual
						{
							OFFSET 0.000000 0.000000 0.000000
							CHANNELS 3 Xrotation Yrotation Zrotation
							JOINT LeftShoulder
							{
								OFFSET 8.476499 7.247704 -3.868750
								CHANNELS 3 Xrotation Yrotation Zrotation
								JOINT LeftShoulder_split
								{
									OFFSET 8.476499 7.247704 -3.868750
									CHANNELS 3 Xrotation Yrotation Zrotation
									JOINT LeftArm
									{
										OFFSET 9.308998 -2.777710 0.208600
										CHANNELS 3 Xrotation Yrotation Zrotation
										JOINT LeftForeArm
										{
											OFFSET 29.972298 0.000000 0.000000
											CHANNELS 3 Xrotation Yrotation Zrotation
											JOINT LeftHand
											{
												OFFSET 26.026505 0.000000 0.000000
												CHANNELS 3 Xrotation Yrotation Zrotation
												End Site
												{
													OFFSET 0 0 0
												}
											}
										}
									}
								}
							}
						}
						JOINT RightShoulder_virtual
						{
							OFFSET 0.000000 0.000000 0.000000
							CHANNELS 3 Xrotation Yrotation Zrotation
							JOINT RightShoulder
							{
								OFFSET -7.570500 7.247704 -3.868750
								CHANNELS 3 Xrotation Yrotation Zrotation
								JOINT RightShoulder_split
								{
									OFFSET -7.570500 7.247704 -3.868750
									CHANNELS 3 Xrotation Yrotation Zrotation
									JOINT RightArm
									{
										OFFSET -9.308998 -2.777710 0.208500
										CHANNELS 3 Xrotation Yrotation Zrotation
										JOINT RightForeArm
										{
											OFFSET -29.972300 0.000000 0.000000
											CHANNELS 3 Xrotation Yrotation Zrotation
											JOINT RightHand
											{
												OFFSET -26.026505 0.000000 0.000000
												CHANNELS 3 Xrotation Yrotation Zrotation
												End Site
												{
													OFFSET 0 0 0
												}
											}
										}
									}
								}
							}
						}
					}
				}
			}
		}
	}
}
MOTION
Frames: 8
Frame Time: 0.03333333
-0.934659 92.139626 -0.347797 0.000000 0.000000 0.000000 4.797083 -12.647495 0.191806 -17.641660 10.020618 15.372550 18.627610 4.619803 1.566108 -1.162297 6.099118 -12.860320 -0.085693 -2.255358 -5.337867 0.000000 0.000000 0.000000 4.800413 -12.060500 0.446141 -8.087057 -7.151240 -9.597722 13.041273 -4.572466 -2.334704 -11.260660 -0.197431 10.142884 -7.432132 2.351842 3.387839 0.000000 0.000000 0.000000 5.292086 -10.341599 0.388160 10.163836 -0.490714 0.041418 1.893036 3.823933 -0.040365 0.135472 -1.893062 0.393668 0.000000 0.000000 0.000000 -8.706072 2.426179 1.303559 -8.748688 5.815082 -6.262413 9.631024 -4.645153 13.648656 0.000000 0.000000 0.000000 -9.240812 2.384196 1.009759 -1.055518 5.924861 -4.743455 1.645547 -2.705621 -0.297053 -5.690294 -0.825434 -68.601143 -0.082589 -19.175427 -0.149223 0.000000 0.000000 0.000000 -9.021298 2.048769 0.974220 -1.522053 0.076610 5.536610 -3.226518 -2.985351 -0.596070 7.567671 10.733285 71.297988 -1.320633 23.384486 2.788094 0.000000 0.000000 0.000000 
-0.312377 91.939011 -0.471149 0.000000 0.000000 0.000000 4.864405 -12.869310 0.266301 -17.598529 9.942502 15.092794 18.704306 4.746117 1.464101 -1.497454 6.187421 -12.838805 -0.195683 -2.271452 -5.187386 0.000000 0.000000 0.000000 4.856840 -11.901217 0.510906 -8.443279 -7.526864 -9.848714 13.374222 -4.675542 -2.385896 -11.883715 -0.446860 9.477454 -5.906837 2.400088 3.282685 0.000000 0.000000 0.000000 5.241517 -10.626249 0.342682 10.162191 -0.603350 0.205927 1.957382 3.822021 -0.097826 -0.173025 -1.900463 0.287662 0.000000 0.000000 0.000000 -8.779413 2.356367 1.264982 -8.522583 5.317645 -6.200597 9.789072 -5.213036 14.392904 0.000000 0.000000 0.000000 -9.205852 2.343290 0.913546 -1.064281 6.090836 -4.802540 1.734960 -1.982071 -0.365457 -5.849188 -0.490437 -68.671904 -0.025918 -18.931946 -0.054701 0.000000 0.000000 0.000000 -8.987539 2.014084 0.947923 -1.459651 -0.098297 5.607312 -2.522654 -1.587041 -1.046580 8.420702 11.264579 70.819609 -1.167605 24.007782 2.673255 0.000000 0.000000 0.000000 
0.531465 91.630234 -0.398304 0.000000 0.000000 0.000000 4.848454 -13.225501 0.330349 -17.876185 10.005802 14.862884 19.336016 4.855219 1.329531 -2.066131 6.144085 -12.837044 -0.325119 -2.278831 -4.975254 0.000000 0.000000 0.000000 4.890460 -11.951439 0.574409 -9.031053 -7.864328 -10.222374 13.691842 -4.529366 -2.540156 -12.043146 -0.929415 9.586805 -5.657726 2.367103 3.040566 0.000000 0.000000 0.000000 5.301980 -11.087725 0.361961 10.264990 -0.803208 0.401979 2.044566 3.868519 -0.172495 -0.319041 -1.738402 0.294740 0.000000 0.000000 0.000000 -8.791014 2.353832 1.198690 -8.792810 3.953903 -5.972076 10.620617 -7.538867 15.616169 0.000000 0.000000 0.000000 -9.208943 2.326965 0.807754 -1.155853 6.175920 -4.696673 1.854199 -1.262796 -0.306375 -5.308275 -0.002590 -68.720657 -0.028614 -19.415035 -0.038117 0.000000 0.000000 0.000000 -8.961046 2.019293 0.916480 -1.340016 -0.504163 5.743450 -1.988673 -0.505236 -1.659312 10.161192 12.444243 70.051199 -0.820807 24.929169 2.371154 0.000000 0.000000 0.000000 
1.470104 91.288826 -0.242077 0.000000 0.000000 0.000000 4.824703 -13.695525 0.388435 -18.428187 10.205308 14.687675 20.302066 4.988911 1.190884 -2.824870 6.024435 -12.790382 -0.455804 -2.280404 -4.697093 0.000000 0.000000 0.000000 4.916491 -12.228969 0.625123 -9.749818 -8.082091 -10.643714 13.910159 -4.076446 -2.688044 -11.490449 -1.396300 10.522898 -6.636308 2.251595 2.757331 0.000000 0.000000 0.000000 5.534436 -11.690986 0.408073 10.443795 -1.035714 0.585158 2.157698 3.916045 -0.263871 -0.252091 -1.518876 0.421066 0.000000 0.000000 0.000000 -8.709960 2.390260 1.102603 -9.563332 1.936284 -5.645189 11.906743 -11.226690 17.030148 0.000000 0.000000 0.000000 -9.215857 2.305760 0.693771 -1.315323 6.101254 -4.522334 2.114924 -0.737653 -0.215537 -3.995702 0.543489 -68.726361 -0.041682 -20.701422 -0.100298 0.000000 0.000000 0.000000 -8.943779 2.036226 0.880825 -1.148621 -1.148230 5.955407 -1.568405 -0.062535 -2.168436 12.312919 13.832999 69.215102 -0.387040 26.019158 1.964737 0.000000 0.000000 0.000000 
2.493450 91.001160 -0.074787 0.000000 0.000000 0.000000 4.853794 -14.314595 0.422904 -19.098906 10.524387 14.565805 21.356953 5.242234 1.065463 -3.721373 5.988980 -12.621151 -0.595580 -2.277698 -4.365174 0.000000 0.000000 0.000000 4.986172 -12.758888 0.653835 -10.333374 -8.175462 -10.967609 13.780453 -3.502939 -2.806954 -10.608166 -1.777017 11.520514 -7.276531 2.137126 2.568990 0.000000 0.000000 0.000000 5.910061 -12.521416 0.456679 10.650559 -1.227996 0.735333 2.293650 3.892479 -0.364023 0.016035 -1.043331 0.731493 0.000000 0.000000 0.000000 -8.541038 2.402988 0.980419 -10.746968 -0.505723 -5.279714 13.401832 -15.596006 18.243075 0.000000 0.000000 0.000000 -9.184072 2.234527 0.598324 -1.503440 5.838051 -4.401882 2.473096 -0.293120 -0.151398 -1.903969 1.163170 -68.657485 -0.011025 -22.740560 -0.206472 0.000000 0.000000 0.000000 -8.917860 2.020300 0.832375 -0.887558 -1.983296 6.252424 -1.242466 -0.033429 -2.420027 14.258444 15.073881 68.505336 0.027277 27.224994 1.565566 0.000000 0.000000 0.000000 
3.480366 90.821312 0.072372 0.000000 0.000000 0.000000 4.954980 -14.970386 0.407425 -19.745911 10.949601 14.498151 22.288113 5.680163 0.975398 -4.780710 6.200006 -12.264586 -0.734443 -2.266286 -4.024603 0.000000 0.000000 0.000000 5.097748 -13.479779 0.615162 -10.780957 -8.143960 -11.168335 13.213678 -2.972482 -2.877333 -9.890981 -2.023220 11.890494 -6.869254 2.085992 2.572657 0.000000 0.000000 0.000000 6.350914 -13.573658 0.463133 10.814386 -1.310405 0.858759 2.449686 3.738048 -0.466812 0.202377 -0.653398 0.994396 0.000000 0.000000 0.000000 -8.287768 2.321956 0.842625 -12.205400 -3.038174 -4.928907 14.798822 -20.006036 18.838364 0.000000 0.000000 0.000000 -9.083358 2.056210 0.517677 -1.684588 5.435650 -4.433209 2.750921 0.168565 -0.096469 0.731553 1.831206 -68.515267 0.095972 -25.411586 -0.319302 0.000000 0.000000 0.000000 -8.862643 1.897778 0.752627 -0.580913 -2.889237 6.593153 -1.065529 -0.199297 -2.426943 15.435925 16.035739 68.039851 0.354629 28.443725 1.265241 0.000000 0.000000 0.000000 
4.438092 90.738556 0.142067 0.000000 0.000000 0.000000 5.125742 -15.592678 0.318426 -20.297353 11.406569 14.426796 23.034480 6.310735 0.959492 -5.970475 6.730568 -11.752167 -0.885266 -2.244449 -3.713185 0.000000 0.000000 0.000000 5.302961 -14.333207 0.532413 -11.311009 -7.925617 -11.359947 12.545014 -2.364140 -2.903595 -9.266346 -1.909519 11.580465 -6.004051 2.139564 2.733845 0.000000 0.000000 0.000000 6.820461 -14.718924 0.450458 10.909429 -1.231127 0.960121 2.630204 3.398389 -0.566394 0.224666 -0.462622 1.118235 0.000000 0.000000 0.000000 -7.972812 2.076872 0.692491 -13.797545 -5.443368 -4.649175 15.910270 -24.120994 18.594299 0.000000 0.000000 0.000000 -8.881423 1.726765 0.449704 -1.844316 5.032957 -4.642563 2.984889 0.663605 -0.008052 3.685142 2.530146 -68.278225 0.253546 -28.597319 -0.395266 0.000000 0.000000 0.000000 -8.763848 1.615971 0.634080 -0.266007 -3.800824 6.856313 -0.924858 -0.469513 -2.326198 15.575456 16.902126 67.849180 0.590399 29.756426 1.095853 0.000000 0.000000 0.000000 
5.368661 90.708992 0.159828 0.000000 0.000000 0.000000 5.338333 -16.209149 0.153623 -20.770962 11.796969 14.344036 23.704655 7.082164 1.020387 -7.167358 7.552132 -11.187138 -1.084544 -2.219478 -3.431762 0.000000 0.000000 0.000000 5.579398 -15.308433 0.447621 -12.237670 -7.487987 -11.578651 12.284122 -1.588872 -2.833945 -8.250391 -1.287012 11.045028 -5.629772 2.271680 3.023272 0.000000 0.000000 0.000000 7.223375 -15.876681 0.453636 10.939333 -0.969984 1.041472 2.846912 2.858255 -0.664178 0.114212 -0.383410 1.107721 0.000000 0.000000 0.000000 -7.645350 1.622567 0.540285 -15.332026 -7.570819 -4.448095 16.558993 -27.473688 17.447783 0.000000 0.000000 0.000000 -8.569135 1.205188 0.384532 -1.958762 4.751218 -5.013401 3.233778 1.155409 0.157162 6.654331 3.273204 -67.996036 0.394700 -31.886458 -0.413863 0.000000 0.000000 0.000000 -8.595057 1.133627 0.481097 0.029692 -4.611325 6.976091 -0.859680 -0.832569 -2.084788 14.758649 18.043357 67.762020 0.770709 31.352590 1.047113 0.000000 0.000000 0.000000 
